PathFileType        4      (X/Y/Z)      C:\Users\ibrah\OneDrive - KTH\Model Validation - Orthoload\rmr-solver-1.0 - original\rmr-solver-1.0\ExperimentalData\S8R\trc\transformed_MSbfkg1.trc         
DataRate	CameraRate	NumFrames	NumMarkers	Units	OrigDataRate	OrigDataStartFrame	OrigNumFrames
50.0	50.0	12	27	mm	50.0	1	398
Frame#	Time	IJ			PX			C7			T8			SC			AA			TS			AI			PC			ACv			ACd			GH			EM			EL			EM2			EL2			US			RS			US2			RS2			MCP2			MCP5			SCREWAA			SCREWTS			SCREWAI			ACvloc			ACdloc			
		X1	Y1	Z1	X2	Y2	Z2	X3	Y3	Z3	X4	Y4	Z4	X5	Y5	Z5	X6	Y6	Z6	X7	Y7	Z7	X8	Y8	Z8	X9	Y9	Z9	X10	Y10	Z10	X11	Y11	Z11	X12	Y12	Z12	X13	Y13	Z13	X14	Y14	Z14	X15	Y15	Z15	X16	Y16	Z16	X17	Y17	Z17	X18	Y18	Z18	X19	Y19	Z19	X20	Y20	Z20	X21	Y21	Z21	X22	Y22	Z22	X23	Y23	Z23	X24	Y24	Z24	X25	Y25	Z25	X26	Y26	Z26	X27	Y27	Z27	
1	0.0	-0.01033494690843608	0.004113220010011426	-0.00224437408525155	52.72242940159352	-139.4539436215695	6.282856394923185	-128.3065244554907	86.12523369010563	-21.29355769667218	-191.8824898840587	-114.2764670677762	-44.03934368370454	-11.22531890073003	8.11996081555397	22.70569725855182	-142.7234611683408	0.7817168540955594	167.4734582926403	-186.0185019662508	1.501268751196777	77.99789963465022	-194.5247326712383	-163.2476794285357	58.11968195088969	-70.32014228539653	5.262301248513299	125.2259418582881	-118.7236651488652	34.73792217044463	151.3942527395235	-118.7236651488652	34.73792217044463	151.3942527395235	-130.4819247689392	-49.35529064825339	174.9330766598959	-80.27307175245757	-334.7810378393562	195.1201023613319	-77.97146931140522	-317.6255546087937	264.9474712690044													22.32654600858967	-521.858716236589	282.7467251000973	-21.00889653826725	-532.6657109550567	320.5717335219723																						
2	0.02	0.1318684937184189	0.0208099757091379	0.03249981508439095	52.90807347825352	-139.4241494897126	6.234099182672017	-128.1992831218123	86.11256747822166	-21.16196944997778	-191.7277131010193	-114.2986005804625	-43.9618191243089	-11.07471144034743	8.123854651979853	22.74908602539147	-142.566575996737	0.919057216163001	167.4171848831331	-185.9654478198759	1.608577209106362	77.99204339757077	-194.5561511377239	-163.1471295322965	58.20917483945502	-70.21107687701287	5.350346040193137	125.0831306041239	-118.5729589861004	34.85778035901016	151.2924778369753	-118.5729589861004	34.85778035901016	151.2924778369753	-130.3197977984016	-49.27006878757914	174.8525324562666	-79.89846724725729	-334.6264158232984	195.4615330646424	-77.59705399199547	-317.3633280953464	265.261762186895													22.85420622300723	-521.4614213652856	283.3351380940704	-20.48983500625195	-532.2785441520955	321.1466491455969																						
3	0.04	0.2752084359345752	0.0386021164418383	0.06542375163373745	53.09411537161171	-139.3933005365253	6.190984531802694	-128.090072046405	86.10068044347813	-21.03922216776483	-191.5713169646577	-114.3207955924878	-43.88592497988313	-10.92351145536032	8.129907232367714	22.7900237772165	-142.4121158604737	1.054738216683512	167.3633156317379	-185.9103252408449	1.713317320187859	77.98631830177833	-194.5799245367446	-163.0494480979723	58.29762960718645	-70.10230774209342	5.438823178932011	124.9464468000651	-118.4247674294506	34.97670393612366	151.1944822252176	-118.4247674294506	34.97670393612366	151.1944822252176	-130.1595307703176	-49.18508898877852	174.774474500621	-79.53147081915345	-334.4734633557448	195.8000144393205	-77.2289573204585	-317.1042063523677	265.5732614979905													23.37398887630276	-521.0711165123693	283.9139671242093	-19.9787901338628	-531.8983946346657	321.7121920455153																						
4	0.06	0.4198100259235406	0.05851515678422473	0.0958334189458588	53.27926072001065	-139.3605936816755	6.160075761225514	-127.9779481928404	86.09084793067179	-20.93018676500938	-191.414503870653	-114.3422736549093	-43.80566029017807	-10.7714393816297	8.140467829687177	22.82742252110315	-142.259017461469	1.1851971891358	167.3197779776419	-185.8516823861542	1.811981974780675	77.98845877409414	-194.5911643151809	-162.9581375884189	58.39104792281091	-69.99266222105155	5.526094322989477	124.8242012815846	-118.278641148595	35.09179589546674	151.1086542136742	-118.278641148595	35.09179589546674	151.1086542136742	-129.9982287422386	-49.10241315795498	174.7067080665815	-79.16612755417542	-334.3247505613632	196.1290056955205	-76.85967073663	-316.8540010537442	265.8761998099593													23.89346288995168	-520.6950605544012	284.4685485834689	-19.46699518858674	-531.5333419466218	322.2549530234176																						
5	0.08	0.5653514792482079	0.08132331759100987	0.123474447680187	53.46196165714183	-139.3254375281639	6.14732972857786	-127.8625737876697	86.08405582525003	-20.83840327255337	-191.2588766361461	-114.3624664533641	-43.7148393399775	-10.61861414283599	8.157469318451723	22.86071500192197	-142.1063793857915	1.306775498252267	167.294308340114	-185.7886427097766	1.901156887371532	78.00621588738096	-194.5860074928695	-162.8765566059374	58.49533264843285	-69.88132576398971	5.610321693851526	124.7241772549776	-118.1342969218097	35.20002902069581	151.0431103545057	-118.1342969218097	35.20002902069581	151.0431103545057	-129.8331254388147	-49.02430959979551	174.6569296113346	-78.79586011909817	-334.1829210075702	196.4419387587704	-76.48123228182067	-316.618573573325	266.1647992950566													24.42034788066002	-520.3403426722801	284.9851078810409	-18.9455967013761	-531.1912160116395	322.7623300600454																						
6	0.1	0.7109187663553809	0.1074806172139385	0.1485789169381655	53.64036124763915	-139.2875059418315	6.157709425974002	-127.7444357982816	86.08091122461846	-20.76564786252642	-191.1065641744124	-114.3810821835967	-43.60711054168966	-10.4656751710434	8.18229306319571	22.88993574779832	-141.953448568693	1.415879807468244	167.2942469981484	-185.7210210141684	1.977701390201596	78.04722076705181	-194.5619052441967	-162.8077317374713	58.61619228678386	-69.76789170131605	5.689557150636058	124.6533175137897	-117.9915998777588	35.29838200956102	151.0054493079549	-117.9915998777588	35.29838200956102	151.0054493079549	-129.6617758234903	-48.95317374846758	174.6323830399247	-78.41386315877673	-334.0505772983838	196.732794916847	-76.0857299477665	-316.403508891524	266.4338005145563													24.96220989253911	-520.013415714834	285.4515186192685	-18.4059347158366	-530.8790996289772	323.2233059780089																						
7	0.12	0.854933027318198	0.1370905522927799	0.1718364131009861	53.81227400685606	-139.2467633459746	6.194838988985542	-127.624965572428	86.0816099956556	-20.71167559987867	-190.9602916518016	-114.3981172788873	-43.47602058835868	-10.31383612289577	8.215692332822568	22.91571721828606	-141.7995461229341	1.509185817715631	167.3263294377062	-185.6493447582976	2.038944673070583	78.11882772703508	-194.5177961261996	-162.7541608162993	58.75906363406361	-69.65233407248215	5.761867057050709	124.6174351315964	-117.8504814626862	35.38401547751171	151.0025029094884	-117.8504814626862	35.38401547751171	151.0025029094884	-129.4822054028353	-48.89140057375847	174.639499204295	-78.01357077257055	-333.9301342864015	196.9967179848729	-75.66585576148024	-316.2137437828818	266.6790194638963													25.52617404645237	-519.7195922484884	285.8579857207023	-17.83979174734372	-530.60280608528	323.6291650231275																						
8	0.14	0.9951637960846734	0.1699167159441831	0.1942879970624199	53.97521043662115	-139.2034603142488	6.260724025780008	-127.506540016882	86.08596490176058	-20.67416965495978	-190.82337950244	-114.4138107728535	-43.31514075230769	-10.16486037712323	8.257779516570086	22.93919716596967	-141.6439408938937	1.583875956692965	167.3964720477544	-185.5747732470665	2.082887664086011	78.22792676207052	-194.4541462307545	-162.7176181577979	58.92904028945956	-69.53490395727623	5.825487688488447	124.6209584893354	-117.7107998460542	35.45448051631432	151.0400866801393	-117.7107998460542	35.45448051631432	151.0400866801393	-129.2930077592312	-48.84121207527971	174.6835330638939	-77.58918488035721	-333.8236475813733	197.2306195616027	-75.21549046035116	-316.0531710832246	266.8978935831381													26.11863944352961	-519.4625437326551	286.1976162499882	-17.23963316988982	-530.3663702952383	323.9741054813153																						
9	0.16	1.128831685227509	0.2054315058904656	0.2171524164289282	54.12644907787836	-139.1581017101638	6.35555806788738	-127.392359058977	86.09348979673285	-20.64890400492612	-190.6996634419448	-114.4285470809138	-43.11825941888946	-10.02095687720189	8.30807518296464	22.96184517456292	-141.4856864208741	1.637895802813613	167.5095553626019	-185.4989187903751	2.108397589979518	78.38072238727985	-194.3728501141813	-162.6989746302066	59.13079571353062	-69.41595910876379	5.879001508395222	124.666723601944	-117.5721577255877	35.50794661984494	151.1227575979643	-117.5721577255877	35.50794661984494	151.1227575979643	-129.0933870934077	-48.80445019164252	174.7682183519858	-77.13624351316672	-333.7326301166913	197.4337292083992	-74.73029233802863	-315.924249025724	267.0899735699323													26.74497823600514	-519.2438510784034	286.4668506330894	-16.59886664460899	-530.1715977999452	324.2557131371194																						
10	0.18	1.25279449335387	0.2428953282978751	0.2416039026283822	54.26315449587563	-139.1113930484277	6.477631710310706	-127.2862076911849	86.103528218893	-20.63010164059029	-190.5933364712371	-114.4427200798617	-42.87963133877339	-9.884603334616125	8.36561014271737	22.98522767616869	-141.3234422308423	1.670208335232541	167.6692138912492	-185.423585038199	2.11538008305088	78.58248460605162	-194.2769988965399	-162.6980466879965	59.36849262814023	-69.29574483417144	5.921520695489723	124.7558279082761	-117.433698815897	35.54343073359142	151.2535924877151	-117.433698815897	35.54343073359142	151.2535924877151	-128.8831471043791	-48.78235163056339	174.895464257949	-76.65219925052487	-333.657873632532	197.6080426004193	-74.20825793051256	-315.8276498878644	267.2573186789689													27.40920112746025	-519.0626586766642	286.6657365541718	-15.91214830358282	-530.0177184476487	324.4752694833358																						
11	0.2	1.363801906565518	0.2814550447956332	0.2685287083853911	54.38253441827754	-139.0641734845164	6.623354813077343	-127.1921229445612	86.11540957473704	-20.61094748841115	-190.5087226713156	-114.4565760180655	-42.59426217518895	-9.758311274831925	8.429066023965781	23.01073989487899	-141.1553027406079	1.681021336132448	167.8776468671651	-185.3504470632828	2.104913015547853	78.83728663810628	-194.1705341966424	-162.7134883223506	59.64567520332744	-69.17414989287268	5.952861361667647	124.8875593481593	-117.2939077054655	35.56100572080782	151.4340047777332	-117.2939077054655	35.56100572080782	151.4340047777332	-128.6626307709849	-48.77532564186833	175.065121617623	-76.13697036726222	-333.5992943353783	197.7586240080968	-73.65021757660188	-315.7619845177578	267.4047568234065													28.11357584881045	-518.9154827059671	286.798037036877	-15.17575842803221	-529.9011897526485	324.6378782119807																						
12	0.22	1.458797079698884	0.3202482917259352	0.2982919040655661	54.48202456985794	-139.0173455081212	6.787394538096472	-127.1139952742415	86.12861354258008	-20.58419798343697	-190.4500002144349	-114.4700545275858	-42.25819878845098	-9.644353087849371	8.496936137566871	23.03933866591466	-140.9786560612752	1.671962173552955	168.1354680060909	-185.2807041442644	2.079327381230801	79.1477515634073	-194.0578172800279	-162.7427380282679	59.96514598551274	-69.05046385022185	5.973690437053011	125.0594123105659	-117.150437638849	35.56196530933199	151.6636196858228	-117.150437638849	35.56196530933199	151.6636196858228	-128.4326172694514	-48.78275787088841	175.2748465596276	-75.59342195205384	-333.5558221488561	197.8937259060565	-73.06022648787403	-315.7236379395441	267.5399771624085													28.85819303700651	-518.796217463711	286.8711723941291	-14.38805964379254	-529.8156881981346	324.752402959399																						
